# xmcd
#
# Track frame offsets:
#	150
#	19651
#	40592
#	60109
#	76730
#	120649
#	152403
#	180299
#	199904
#
# Disc length: 2936 seconds
#
# Revision: 1
# Processed by: cddbd v1.5.2PL0 Copyright (c) Steve Scherf et al.
# Submitted via: audiograbber 1.83.01
#
DISCID=570b7609
DTITLE=Grateful Dead - 80-10-07 Warfield Theatre, San Francisco CA
DYEAR=1900
DGENRE=
TTITLE0=Iko Iko
TTITLE1=Dark Hollow
TTITLE2=Rosalie McFall
TTITLE3=Monkey and The Engineer
TTITLE4=To Lay Me Down
TTITLE5=Heaven Help The Fool
TTITLE6=Deep Elem Blues
TTITLE7=El Paso
TTITLE8=Ripple
EXTD=
EXTT0=
EXTT1=
EXTT2=
EXTT3=
EXTT4=
EXTT5=
EXTT6=
EXTT7=
EXTT8=
PLAYORDER=
